# This file uses centimeters as units for non-parametric coordinates.

g default
v -3.319628 -3.884169 2.928188
v 3.319628 -3.884169 2.928188
v -3.319628 3.882853 2.928188
v 3.319628 3.882853 2.928188
v -3.319628 3.882853 -3.711068
v 3.319628 3.882853 -3.711068
v -3.319628 -3.884169 -3.711068
v 3.319628 -3.884169 -3.711068
v -2.804163 -3.373006 -4.050811
v 2.822994 -3.373006 -4.050811
v -2.804163 3.373007 -4.050811
v 2.822994 3.373007 -4.050811
v -3.533508 -4.127061 -4.050811
v 3.552338 -4.127061 -4.050811
v -3.533508 4.127061 -4.050811
v 3.552338 4.127061 -4.050811
v 0.423288 4.127061 -4.050811
v 0.423287 3.373007 -4.050811
v 0.423287 -3.373006 -4.050811
v 0.423288 -4.127061 -4.050811
v -0.198857 4.127061 -4.050811
v -0.198856 3.373007 -4.050811
v -0.198856 -3.373006 -4.050811
v -0.198857 -4.127061 -4.050811
v -2.804163 -3.373006 -3.701683
v -0.198856 -3.373006 -3.701683
v -2.804163 3.373007 -3.701683
v 2.822994 -3.373006 -3.701683
v 2.822994 3.373007 -3.701683
v -0.198856 3.373007 -3.701683
v -3.533508 -4.127061 -3.701683
v -0.198857 -4.127061 -3.701683
v -3.533508 4.127061 -3.701683
v 3.552338 -4.127061 -3.701683
v 3.552338 4.127061 -3.701683
v -0.198857 4.127061 -3.701683
v 0.423288 4.127061 -3.701683
v 0.423287 3.373007 -3.701683
v 0.423287 -3.373006 -3.701683
v 0.423288 -4.127061 -3.701683
v -3.017864 -3.526403 -3.701683
v -0.168545 -3.526403 -3.701683
v -3.017864 3.526401 -3.701683
v 3.036695 -3.526403 -3.701683
v 3.036695 3.526401 -3.701683
v -0.168545 3.526401 -3.701683
v 0.363052 3.526401 -3.701683
v 0.363052 -3.526403 -3.701683
v -2.804163 -3.373006 3.264480
v 2.822994 -3.373006 3.264480
v -2.804163 3.373007 3.264480
v 2.822994 3.373007 3.264480
v -3.533508 -4.127061 3.264480
v 3.552338 -4.127061 3.264480
v -3.533508 4.127061 3.264480
v 3.552338 4.127061 3.264480
v 0.423288 4.127061 3.264480
v 0.423287 3.373007 3.264480
v 0.423287 -3.373006 3.264480
v 0.423288 -4.127061 3.264480
v -0.198857 4.127061 3.264480
v -0.198856 3.373007 3.264480
v -0.198856 -3.373006 3.264480
v -0.198857 -4.127061 3.264480
v -2.804163 -3.373006 2.915352
v -0.198856 -3.373006 2.915352
v -2.804163 3.373007 2.915352
v 2.822994 -3.373006 2.915352
v 2.822994 3.373007 2.915352
v -0.198856 3.373007 2.915352
v -3.533508 -4.127061 2.915352
v -0.198857 -4.127061 2.915352
v -3.533508 4.127061 2.915352
v 3.552338 -4.127061 2.915352
v 3.552338 4.127061 2.915352
v -0.198857 4.127061 2.915352
v 0.423288 4.127061 2.915352
v 0.423287 3.373007 2.915352
v 0.423287 -3.373006 2.915352
v 0.423288 -4.127061 2.915352
v -3.017864 -3.526403 2.915352
v -0.168545 -3.526403 2.915352
v -3.017864 3.526401 2.915352
v 3.036695 -3.526403 2.915352
v 3.036695 3.526401 2.915352
v -0.168545 3.526401 2.915352
v 0.363052 3.526401 2.915352
v 0.363052 -3.526403 2.915352
v 3.123470 -3.878552 2.985780
v 3.537662 -3.878552 2.985780
v 3.123470 -3.464359 2.985780
v 3.537662 -3.464359 2.985780
v 3.123470 -3.464359 -3.726296
v 3.537662 -3.464359 -3.726296
v 3.123470 -3.878552 -3.726296
v 3.537662 -3.878552 -3.726296
v 3.123470 3.697289 2.985780
v 3.537662 3.697289 2.985780
v 3.123470 4.111481 2.985780
v 3.537662 4.111481 2.985780
v 3.123470 4.111481 -3.726296
v 3.537662 4.111481 -3.726296
v 3.123470 3.697289 -3.726296
v 3.537662 3.697289 -3.726296
v -3.123470 -3.878552 2.985780
v -3.537662 -3.878552 2.985780
v -3.123470 -3.464359 2.985780
v -3.537662 -3.464359 2.985780
v -3.123470 -3.464359 -3.726296
v -3.537662 -3.464359 -3.726296
v -3.123470 -3.878552 -3.726296
v -3.537662 -3.878552 -3.726296
v -3.123470 3.697288 2.985780
v -3.537662 3.697288 2.985780
v -3.123470 4.111481 2.985780
v -3.537662 4.111481 2.985780
v -3.123470 4.111481 -3.726296
v -3.537662 4.111481 -3.726296
v -3.123470 3.697288 -3.726296
v -3.537662 3.697288 -3.726296
vt 0.366881 0.171116
vt 0.367283 0.326337
vt 0.014656 0.014520
vt 0.185688 0.326554
vt 0.014358 0.171615
vt 0.171667 0.171290
vt 0.014496 0.356320
vt 0.172478 0.355958
vt 0.014755 0.514595
vt 0.172973 0.514236
vt 0.367479 0.481686
vt 0.185797 0.481865
vt 0.367544 0.016521
vt 0.186724 0.015880
vt 0.186290 0.170475
vt 0.170736 0.014569
vt 0.503004 0.273302
vt 0.517184 0.258226
vt 0.455458 0.259088
vt 0.455666 0.273963
vt 0.473195 0.036850
vt 0.454408 0.017427
vt 0.454409 0.230039
vt 0.473196 0.210615
vt 0.497727 0.211363
vt 0.516514 0.230786
vt 0.516513 0.018175
vt 0.497727 0.037598
vt 0.455415 0.309025
vt 0.517727 0.307930
vt 0.502939 0.293169
vt 0.455151 0.294008
vt 0.443025 0.309242
vt 0.442762 0.294226
vt 0.394712 0.221869
vt 0.413288 0.222067
vt 0.415424 0.020642
vt 0.396848 0.020445
vt 0.443185 0.259260
vt 0.443393 0.274135
vt 0.390879 0.295137
vt 0.376619 0.310409
vt 0.377403 0.260178
vt 0.391998 0.274852
vt 0.392094 0.281736
vt 0.443489 0.281019
vt 0.482184 0.210615
vt 0.482184 0.036850
vt 0.488738 0.037598
vt 0.488739 0.211363
vt 0.442640 0.287277
vt 0.390757 0.288188
vt 0.443089 0.252376
vt 0.377307 0.253295
vt 0.445420 0.017427
vt 0.445420 0.230039
vt 0.525503 0.230786
vt 0.525502 0.018175
vt 0.376741 0.317358
vt 0.443147 0.316192
vt 0.455537 0.315974
vt 0.517849 0.314879
vt 0.502817 0.286220
vt 0.455029 0.287059
vt 0.455762 0.280847
vt 0.503100 0.280186
vt 0.517088 0.251342
vt 0.455362 0.252204
vt 0.423707 0.222176
vt 0.425843 0.020753
vt 0.386428 0.020335
vt 0.384293 0.221758
vt 0.443521 0.240518
vt 0.387313 0.241303
vt 0.432138 0.032899
vt 0.432138 0.214567
vt 0.538784 0.215314
vt 0.538784 0.033647
vt 0.387219 0.329139
vt 0.443961 0.328143
vt 0.454547 0.327957
vt 0.507791 0.327022
vt 0.506750 0.239635
vt 0.454008 0.240372
vt 0.503004 0.273302
vt 0.455666 0.273963
vt 0.455458 0.259088
vt 0.517184 0.258226
vt 0.473195 0.036850
vt 0.473196 0.210615
vt 0.454409 0.230038
vt 0.454408 0.017427
vt 0.497727 0.211363
vt 0.497727 0.037598
vt 0.516513 0.018175
vt 0.516514 0.230786
vt 0.455415 0.309025
vt 0.455151 0.294008
vt 0.502939 0.293169
vt 0.517727 0.307930
vt 0.443025 0.309242
vt 0.442762 0.294226
vt 0.394712 0.221869
vt 0.396848 0.020445
vt 0.415424 0.020642
vt 0.413288 0.222066
vt 0.443393 0.274135
vt 0.443185 0.259260
vt 0.390879 0.295137
vt 0.376619 0.310409
vt 0.391998 0.274852
vt 0.377403 0.260178
vt 0.443489 0.281019
vt 0.392094 0.281736
vt 0.482184 0.036850
vt 0.482184 0.210615
vt 0.488739 0.211363
vt 0.488738 0.037598
vt 0.390757 0.288188
vt 0.442640 0.287277
vt 0.377307 0.253294
vt 0.443089 0.252376
vt 0.445420 0.230038
vt 0.445420 0.017427
vt 0.525502 0.018175
vt 0.525503 0.230786
vt 0.443147 0.316192
vt 0.376741 0.317358
vt 0.517849 0.314880
vt 0.455537 0.315974
vt 0.455029 0.287059
vt 0.502817 0.286220
vt 0.503100 0.280186
vt 0.455762 0.280847
vt 0.455362 0.252204
vt 0.517088 0.251342
vt 0.425843 0.020752
vt 0.423708 0.222177
vt 0.384293 0.221759
vt 0.386429 0.020334
vt 0.387313 0.241303
vt 0.443521 0.240518
vt 0.432138 0.214567
vt 0.432138 0.032899
vt 0.538784 0.033647
vt 0.538785 0.215314
vt 0.443961 0.328143
vt 0.387219 0.329139
vt 0.507791 0.327022
vt 0.454547 0.327957
vt 0.454008 0.240372
vt 0.506750 0.239635
vt 0.375572 0.353937
vt 0.375572 0.344269
vt 0.532245 0.344269
vt 0.532245 0.353937
vt 0.532245 0.363605
vt 0.532245 0.373273
vt 0.375573 0.373273
vt 0.375573 0.363605
vt 0.375572 0.334601
vt 0.532245 0.334601
vt 0.375572 0.353937
vt 0.375572 0.344269
vt 0.532245 0.344269
vt 0.532245 0.353937
vt 0.532245 0.363605
vt 0.532245 0.373273
vt 0.375573 0.373273
vt 0.375572 0.363605
vt 0.375572 0.334601
vt 0.532245 0.334601
vt 0.375572 0.353937
vt 0.532245 0.353937
vt 0.532245 0.344269
vt 0.375572 0.344269
vt 0.532245 0.363605
vt 0.375573 0.363605
vt 0.375573 0.373273
vt 0.532245 0.373273
vt 0.375572 0.334601
vt 0.532245 0.334601
vt 0.375572 0.353937
vt 0.532245 0.353937
vt 0.532245 0.344269
vt 0.375572 0.344269
vt 0.532245 0.363605
vt 0.375573 0.363605
vt 0.375573 0.373273
vt 0.532245 0.373273
vt 0.375572 0.334601
vt 0.532245 0.334601
vn 0.000000 0.000000 1.000000
vn 0.000000 0.000000 1.000000
vn 0.000000 0.000000 1.000000
vn 0.000000 0.000000 1.000000
vn 0.000000 1.000000 0.000000
vn 0.000000 1.000000 0.000000
vn 0.000000 1.000000 0.000000
vn 0.000000 1.000000 0.000000
vn 0.000000 0.000000 -1.000000
vn 0.000000 0.000000 -1.000000
vn 0.000000 0.000000 -1.000000
vn 0.000000 0.000000 -1.000000
vn 0.000000 -1.000000 0.000000
vn 0.000000 -1.000000 0.000000
vn 0.000000 -1.000000 0.000000
vn 0.000000 -1.000000 0.000000
vn 1.000000 0.000000 0.000000
vn 1.000000 0.000000 0.000000
vn 1.000000 0.000000 0.000000
vn 1.000000 0.000000 0.000000
vn -1.000000 0.000000 0.000000
vn -1.000000 0.000000 0.000000
vn -1.000000 0.000000 0.000000
vn -1.000000 0.000000 0.000000
vn 0.000000 0.000000 -1.000000
vn 0.000000 0.000000 -1.000000
vn 0.000000 0.000000 -1.000000
vn 0.000000 0.000000 -1.000000
vn -0.000000 0.000000 -1.000000
vn -0.000000 0.000000 -1.000000
vn -0.000000 0.000000 -1.000000
vn -0.000000 0.000000 -1.000000
vn 0.000000 0.000000 -1.000000
vn 0.000000 0.000000 -1.000000
vn 0.000000 0.000000 -1.000000
vn 0.000000 0.000000 -1.000000
vn 0.000000 0.000000 -1.000000
vn 0.000000 0.000000 -1.000000
vn 0.000000 0.000000 -1.000000
vn 0.000000 0.000000 -1.000000
vn 0.000000 1.000000 0.000000
vn 0.000000 1.000000 0.000000
vn 0.000000 1.000000 0.000000
vn 0.000000 1.000000 0.000000
vn 1.000000 0.000000 0.000000
vn 1.000000 0.000000 0.000000
vn 1.000000 0.000000 0.000000
vn 1.000000 0.000000 0.000000
vn -1.000000 0.000000 0.000000
vn -1.000000 0.000000 0.000000
vn -1.000000 0.000000 0.000000
vn -1.000000 0.000000 0.000000
vn 0.000000 -1.000000 0.000000
vn 0.000000 -1.000000 0.000000
vn 0.000000 -1.000000 0.000000
vn 0.000000 -1.000000 0.000000
vn 0.000000 -1.000000 0.000000
vn 0.000000 -1.000000 0.000000
vn 0.000000 -1.000000 0.000000
vn 0.000000 -1.000000 0.000000
vn -1.000000 0.000000 0.000000
vn -1.000000 0.000000 0.000000
vn -1.000000 0.000000 0.000000
vn -1.000000 0.000000 0.000000
vn 1.000000 0.000000 0.000000
vn 1.000000 0.000000 0.000000
vn 1.000000 0.000000 0.000000
vn 1.000000 0.000000 0.000000
vn 0.000000 1.000000 0.000000
vn 0.000000 1.000000 0.000000
vn 0.000000 1.000000 0.000000
vn 0.000000 1.000000 0.000000
vn 0.000000 1.000000 0.000000
vn 0.000000 1.000000 0.000000
vn 0.000000 1.000000 0.000000
vn 0.000000 1.000000 0.000000
vn 0.000000 -1.000000 0.000000
vn 0.000000 -1.000000 0.000000
vn 0.000000 -1.000000 0.000000
vn 0.000000 -1.000000 0.000000
vn 0.000000 1.000000 0.000000
vn 0.000000 1.000000 0.000000
vn 0.000000 1.000000 0.000000
vn 0.000000 1.000000 0.000000
vn 0.000000 -1.000000 0.000000
vn 0.000000 -1.000000 0.000000
vn 0.000000 -1.000000 0.000000
vn 0.000000 -1.000000 0.000000
vn 1.000000 0.000000 0.000000
vn 1.000000 0.000000 0.000000
vn 1.000000 0.000000 0.000000
vn 1.000000 0.000000 0.000000
vn -1.000000 0.000000 0.000000
vn -1.000000 0.000000 0.000000
vn -1.000000 0.000000 0.000000
vn -1.000000 0.000000 0.000000
vn 0.000000 0.000000 1.000000
vn 0.000000 0.000000 1.000000
vn 0.000000 0.000000 1.000000
vn 0.000000 0.000000 1.000000
vn 0.000000 0.000000 1.000000
vn 0.000000 0.000000 1.000000
vn 0.000000 0.000000 1.000000
vn 0.000000 0.000000 1.000000
vn 0.000000 0.000000 1.000000
vn 0.000000 0.000000 1.000000
vn 0.000000 0.000000 1.000000
vn 0.000000 0.000000 1.000000
vn 0.000000 0.000000 1.000000
vn 0.000000 0.000000 1.000000
vn 0.000000 0.000000 1.000000
vn 0.000000 0.000000 1.000000
vn -0.000000 0.000000 1.000000
vn 0.000000 0.000000 1.000000
vn 0.000000 0.000000 1.000000
vn -0.000000 0.000000 1.000000
vn -0.000000 0.000000 1.000000
vn -0.000000 0.000000 1.000000
vn -0.000000 0.000000 1.000000
vn -0.000000 0.000000 1.000000
vn -0.000000 0.000000 1.000000
vn -0.000000 0.000000 1.000000
vn 0.000000 0.000000 1.000000
vn 0.000000 0.000000 1.000000
vn 0.000000 0.000000 1.000000
vn 0.000000 0.000000 1.000000
vn 0.000000 0.000000 1.000000
vn 0.000000 0.000000 1.000000
vn 0.000000 1.000000 0.000000
vn 0.000000 1.000000 0.000000
vn 0.000000 1.000000 0.000000
vn 0.000000 1.000000 0.000000
vn 1.000000 0.000000 0.000000
vn 1.000000 0.000000 0.000000
vn 1.000000 0.000000 0.000000
vn 1.000000 0.000000 0.000000
vn -1.000000 0.000000 0.000000
vn -1.000000 0.000000 0.000000
vn -1.000000 0.000000 0.000000
vn -1.000000 0.000000 0.000000
vn 0.000000 -1.000000 0.000000
vn 0.000000 -1.000000 0.000000
vn 0.000000 -1.000000 0.000000
vn 0.000000 -1.000000 0.000000
vn 0.000000 -1.000000 0.000000
vn 0.000000 -1.000000 0.000000
vn 0.000000 -1.000000 0.000000
vn 0.000000 -1.000000 0.000000
vn -1.000000 0.000000 0.000000
vn -1.000000 0.000000 0.000000
vn -1.000000 0.000000 0.000000
vn -1.000000 0.000000 0.000000
vn 1.000000 0.000000 0.000000
vn 1.000000 0.000000 0.000000
vn 1.000000 0.000000 0.000000
vn 1.000000 0.000000 0.000000
vn 0.000000 1.000000 0.000000
vn 0.000000 1.000000 0.000000
vn 0.000000 1.000000 0.000000
vn 0.000000 1.000000 0.000000
vn 0.000000 1.000000 0.000000
vn 0.000000 1.000000 0.000000
vn 0.000000 1.000000 0.000000
vn 0.000000 1.000000 0.000000
vn 0.000000 -1.000000 0.000000
vn 0.000000 -1.000000 0.000000
vn 0.000000 -1.000000 0.000000
vn 0.000000 -1.000000 0.000000
vn 0.000000 1.000000 0.000000
vn 0.000000 1.000000 0.000000
vn 0.000000 1.000000 0.000000
vn 0.000000 1.000000 0.000000
vn 0.000000 -1.000000 0.000000
vn 0.000000 -1.000000 0.000000
vn 0.000000 -1.000000 0.000000
vn 0.000000 -1.000000 0.000000
vn 1.000000 0.000000 0.000000
vn 1.000000 0.000000 0.000000
vn 1.000000 0.000000 0.000000
vn 1.000000 0.000000 0.000000
vn -1.000000 0.000000 0.000000
vn -1.000000 0.000000 0.000000
vn -1.000000 0.000000 0.000000
vn -1.000000 0.000000 0.000000
vn 0.000000 0.000000 -1.000000
vn 0.000000 0.000000 -1.000000
vn 0.000000 0.000000 -1.000000
vn 0.000000 0.000000 -1.000000
vn 0.000000 0.000000 -1.000000
vn 0.000000 0.000000 -1.000000
vn 0.000000 0.000000 -1.000000
vn 0.000000 0.000000 -1.000000
vn 0.000000 0.000000 -1.000000
vn 0.000000 0.000000 -1.000000
vn 0.000000 0.000000 -1.000000
vn 0.000000 0.000000 -1.000000
vn 0.000000 0.000000 -1.000000
vn 0.000000 0.000000 -1.000000
vn 0.000000 0.000000 -1.000000
vn 0.000000 0.000000 -1.000000
vn 0.000000 1.000000 0.000000
vn 0.000000 1.000000 0.000000
vn 0.000000 1.000000 0.000000
vn 0.000000 1.000000 0.000000
vn 0.000000 -1.000000 0.000000
vn 0.000000 -1.000000 0.000000
vn 0.000000 -1.000000 0.000000
vn 0.000000 -1.000000 0.000000
vn 1.000000 0.000000 0.000000
vn 1.000000 0.000000 0.000000
vn 1.000000 0.000000 0.000000
vn 1.000000 0.000000 0.000000
vn -1.000000 0.000000 0.000000
vn -1.000000 0.000000 0.000000
vn -1.000000 0.000000 0.000000
vn -1.000000 0.000000 0.000000
vn 0.000000 1.000000 0.000000
vn 0.000000 1.000000 0.000000
vn 0.000000 1.000000 0.000000
vn 0.000000 1.000000 0.000000
vn 0.000000 -1.000000 0.000000
vn 0.000000 -1.000000 0.000000
vn 0.000000 -1.000000 0.000000
vn 0.000000 -1.000000 0.000000
vn 1.000000 0.000000 0.000000
vn 1.000000 0.000000 0.000000
vn 1.000000 0.000000 0.000000
vn 1.000000 0.000000 0.000000
vn -1.000000 0.000000 0.000000
vn -1.000000 0.000000 0.000000
vn -1.000000 0.000000 0.000000
vn -1.000000 0.000000 0.000000
vn 0.000000 1.000000 0.000000
vn 0.000000 1.000000 0.000000
vn 0.000000 1.000000 0.000000
vn 0.000000 1.000000 0.000000
vn 0.000000 -1.000000 0.000000
vn 0.000000 -1.000000 0.000000
vn 0.000000 -1.000000 0.000000
vn 0.000000 -1.000000 0.000000
vn -1.000000 0.000000 0.000000
vn -1.000000 0.000000 0.000000
vn -1.000000 0.000000 0.000000
vn -1.000000 0.000000 0.000000
vn 1.000000 0.000000 0.000000
vn 1.000000 0.000000 0.000000
vn 1.000000 0.000000 0.000000
vn 1.000000 0.000000 0.000000
vn 0.000000 1.000000 0.000000
vn 0.000000 1.000000 0.000000
vn 0.000000 1.000000 0.000000
vn 0.000000 1.000000 0.000000
vn 0.000000 -1.000000 0.000000
vn 0.000000 -1.000000 0.000000
vn 0.000000 -1.000000 0.000000
vn 0.000000 -1.000000 0.000000
vn -1.000000 0.000000 0.000000
vn -1.000000 0.000000 0.000000
vn -1.000000 0.000000 0.000000
vn -1.000000 0.000000 0.000000
vn 1.000000 0.000000 0.000000
vn 1.000000 0.000000 0.000000
vn 1.000000 0.000000 0.000000
vn 1.000000 0.000000 0.000000
s off
g crate1
f 1/1/1 2/2/2 4/4/3 3/15/4
f 3/3/5 4/16/6 6/6/7 5/5/8
f 5/5/9 6/6/10 8/8/11 7/7/12
f 7/7/13 8/8/14 2/10/15 1/9/16
f 2/2/17 8/11/18 6/12/19 4/4/20
f 7/13/21 1/1/22 3/15/23 5/14/24
s 1
f 10/17/25 14/18/26 20/19/27 19/20/28
f 9/21/29 13/22/30 15/23/31 11/24/32
f 12/25/33 16/26/34 14/27/26 10/28/25
f 17/29/35 16/30/34 12/31/33 18/32/36
f 21/33/37 17/29/35 18/32/36 22/34/38
f 22/35/38 18/36/36 19/37/28 23/38/39
f 20/19/27 24/39/40 23/40/39 19/20/28
f 11/41/32 15/42/31 21/33/37 22/34/38
f 24/39/40 13/43/30 9/44/29 23/40/39
s off
f 9/44/41 25/45/42 26/46/43 23/40/44
f 11/24/45 27/47/46 25/48/47 9/21/48
f 10/28/49 28/49/50 29/50/51 12/25/52
f 22/34/53 30/51/54 27/52/55 11/41/56
s 3
f 24/39/57 32/53/58 31/54/59 13/43/60
s off
f 13/22/61 31/55/62 33/56/63 15/23/64
f 16/26/65 35/57/66 34/58/67 14/27/68
s 4
f 15/42/69 33/59/70 36/60/71 21/33/72
f 17/29/73 37/61/74 35/62/75 16/30/76
s off
f 12/31/77 29/63/78 38/64/79 18/32/80
f 19/20/81 39/65/82 28/66/83 10/17/84
s 3
f 14/18/85 34/67/86 40/68/87 20/19/88
s off
f 18/36/89 38/69/90 39/70/91 19/37/92
s 4
f 21/33/72 36/60/71 37/61/74 17/29/73
s 3
f 20/19/88 40/68/87 32/53/58 24/39/57
s off
f 23/38/93 26/71/94 30/72/95 22/35/96
s 5
f 32/53/97 42/73/98 41/74/99 31/54/100
f 31/55/100 41/75/99 43/76/101 33/56/102
f 35/57/103 45/77/104 44/78/105 34/58/106
f 33/59/102 43/79/101 46/80/107 36/60/108
f 37/61/109 47/81/110 45/82/104 35/62/103
f 34/67/106 44/83/105 48/84/111 40/68/112
f 36/60/108 46/80/107 47/81/110 37/61/109
f 40/68/112 48/84/111 42/73/98 32/53/97
s 7
f 50/85/113 59/86/114 60/87/115 54/88/116
f 49/89/117 51/90/118 55/91/119 53/92/120
f 52/93/121 50/94/113 54/95/116 56/96/122
f 57/97/123 58/98/124 52/99/121 56/100/122
f 61/101/125 62/102/126 58/98/124 57/97/123
f 62/103/126 63/104/127 59/105/114 58/106/124
f 60/87/115 59/86/114 63/107/127 64/108/128
f 51/109/118 62/102/126 61/101/125 55/110/119
f 64/108/128 63/107/127 49/111/117 53/112/120
s off
f 49/111/129 63/107/130 66/113/131 65/114/132
f 51/90/133 49/89/134 65/115/135 67/116/136
f 50/94/137 52/93/138 69/117/139 68/118/140
f 62/102/141 51/109/142 67/119/143 70/120/144
s 9
f 64/108/145 53/112/146 71/121/147 72/122/148
s off
f 53/92/149 55/91/150 73/123/151 71/124/152
f 56/96/153 54/95/154 74/125/155 75/126/156
s 10
f 55/110/157 61/101/158 76/127/159 73/128/160
f 57/97/161 56/100/162 75/129/163 77/130/164
s off
f 52/99/165 58/98/166 78/131/167 69/132/168
f 59/86/169 50/85/170 68/133/171 79/134/172
s 9
f 54/88/173 60/87/174 80/135/175 74/136/176
s off
f 58/106/177 59/105/178 79/137/179 78/138/180
s 10
f 61/101/158 57/97/161 77/130/164 76/127/159
s 9
f 60/87/174 64/108/145 72/122/148 80/135/175
s off
f 63/104/181 62/103/182 70/139/183 66/140/184
s 11
f 72/122/185 71/121/186 81/141/187 82/142/188
f 71/124/186 73/123/189 83/143/190 81/144/187
f 75/126/191 74/125/192 84/145/193 85/146/194
f 73/128/189 76/127/195 86/147/196 83/148/190
f 77/130/197 75/129/191 85/149/194 87/150/198
f 74/136/192 80/135/199 88/151/200 84/152/193
f 76/127/195 77/130/197 87/150/198 86/147/196
f 80/135/199 72/122/185 82/142/188 88/151/200
s off
f 91/153/201 92/154/202 94/155/203 93/156/204
f 95/157/205 96/158/206 90/159/207 89/160/208
f 90/161/209 96/162/210 94/155/211 92/154/212
f 91/153/213 93/156/214 95/157/215 89/160/216
f 99/163/217 100/164/218 102/165/219 101/166/220
f 103/167/221 104/168/222 98/169/223 97/170/224
f 98/171/225 104/172/226 102/165/227 100/164/228
f 99/163/229 101/166/230 103/167/231 97/170/232
f 107/173/233 109/174/234 110/175/235 108/176/236
f 111/177/237 105/178/238 106/179/239 112/180/240
f 106/181/241 108/176/242 110/175/243 112/182/244
f 107/173/245 105/178/246 111/177/247 109/174/248
f 115/183/249 117/184/250 118/185/251 116/186/252
f 119/187/253 113/188/254 114/189/255 120/190/256
f 114/191/257 116/186/258 118/185/259 120/192/260
f 115/183/261 113/188/262 119/187/263 117/184/264
